<svg xmlns="http://www.w3.org/2000/svg" viewBox="115 301 1446 429" role="img" aria-label="Денница logo">
  <path fill="#F4EBDD" fill-rule="evenodd" d="M 368 667 L 354 682 L 367 697 L 369 698 L 383 682 L 374 672 Z M 368 673 L 369 673 L 377 682 L 369 691 L 368 691 L 361 683 L 361 681 Z M 311 648 L 313 651 L 381 651 L 382 650 L 397 650 L 398 651 L 422 650 L 423 651 L 426 651 L 428 649 L 426 646 L 314 646 Z M 127 609 L 131 616 L 143 628 L 156 636 L 157 638 L 155 639 L 154 638 L 139 636 L 138 635 L 131 635 L 132 636 L 151 642 L 166 643 L 183 653 L 182 655 L 180 654 L 174 654 L 173 653 L 150 653 L 149 654 L 158 657 L 171 658 L 172 659 L 195 658 L 199 661 L 201 661 L 214 667 L 213 669 L 210 668 L 194 668 L 193 669 L 182 669 L 181 670 L 178 670 L 179 671 L 186 673 L 193 673 L 194 674 L 203 674 L 204 673 L 214 673 L 220 671 L 227 671 L 230 673 L 239 675 L 246 678 L 245 680 L 242 679 L 239 680 L 227 680 L 226 681 L 208 684 L 212 686 L 232 686 L 233 685 L 239 685 L 244 683 L 248 683 L 253 681 L 259 681 L 275 686 L 274 688 L 268 688 L 267 689 L 263 689 L 253 692 L 248 692 L 238 695 L 243 697 L 258 696 L 287 688 L 290 690 L 307 694 L 308 696 L 307 697 L 296 697 L 295 698 L 286 699 L 268 705 L 269 706 L 281 706 L 282 705 L 291 704 L 292 703 L 310 700 L 311 699 L 322 699 L 338 704 L 362 716 L 363 719 L 353 726 L 352 728 L 353 729 L 357 728 L 369 720 L 383 730 L 384 730 L 386 727 L 375 720 L 374 717 L 384 711 L 386 711 L 405 702 L 408 702 L 416 699 L 427 699 L 428 700 L 437 701 L 438 702 L 446 703 L 456 706 L 470 706 L 470 705 L 456 700 L 448 699 L 447 698 L 442 698 L 441 697 L 431 697 L 430 695 L 431 694 L 442 692 L 446 690 L 454 689 L 455 690 L 464 691 L 471 694 L 475 694 L 481 696 L 495 697 L 496 696 L 500 696 L 500 695 L 482 691 L 481 690 L 465 688 L 464 686 L 473 683 L 477 683 L 481 681 L 484 681 L 492 684 L 500 684 L 501 685 L 507 685 L 508 686 L 527 686 L 532 684 L 529 684 L 524 682 L 519 682 L 518 681 L 494 680 L 493 678 L 496 676 L 506 674 L 516 670 L 523 672 L 527 672 L 528 673 L 540 673 L 541 674 L 544 674 L 545 673 L 557 673 L 564 671 L 565 670 L 562 670 L 561 669 L 551 669 L 550 668 L 529 668 L 528 666 L 539 661 L 541 661 L 546 658 L 563 658 L 564 659 L 569 659 L 570 658 L 583 657 L 592 654 L 592 653 L 567 653 L 566 654 L 558 655 L 557 653 L 569 647 L 576 642 L 588 642 L 589 641 L 593 641 L 610 636 L 610 635 L 604 635 L 603 636 L 591 637 L 586 639 L 584 638 L 585 636 L 588 635 L 601 626 L 615 611 L 615 608 L 605 615 L 587 632 L 580 636 L 579 633 L 582 630 L 587 621 L 587 619 L 589 616 L 589 613 L 588 613 L 580 624 L 572 639 L 567 644 L 550 653 L 549 651 L 557 642 L 565 627 L 565 624 L 564 624 L 557 632 L 548 647 L 540 657 L 520 665 L 519 663 L 522 661 L 526 655 L 531 650 L 532 647 L 536 642 L 538 638 L 538 636 L 537 636 L 532 640 L 520 656 L 508 669 L 489 675 L 488 673 L 499 663 L 508 650 L 509 646 L 508 646 L 495 658 L 488 667 L 477 678 L 460 683 L 459 681 L 471 668 L 478 657 L 478 655 L 477 655 L 449 685 L 433 690 L 432 688 L 446 672 L 452 661 L 451 661 L 443 668 L 423 692 L 420 694 L 409 697 L 408 695 L 416 686 L 423 675 L 425 670 L 423 670 L 416 677 L 402 696 L 396 702 L 383 708 L 381 708 L 379 710 L 369 715 L 367 715 L 360 710 L 342 702 L 335 695 L 324 679 L 314 670 L 313 670 L 319 682 L 330 695 L 329 697 L 316 693 L 304 680 L 296 669 L 287 660 L 286 660 L 286 662 L 291 671 L 299 681 L 307 688 L 306 690 L 295 686 L 292 686 L 289 684 L 275 668 L 264 657 L 260 655 L 261 659 L 264 664 L 280 682 L 277 683 L 262 678 L 253 669 L 243 656 L 236 649 L 230 646 L 234 654 L 251 674 L 249 675 L 231 669 L 221 658 L 208 640 L 202 635 L 201 636 L 206 646 L 220 664 L 218 665 L 204 658 L 202 658 L 197 653 L 180 627 L 176 624 L 176 626 L 182 639 L 190 650 L 190 651 L 188 652 L 186 650 L 174 644 L 169 639 L 160 622 L 153 613 L 152 613 L 153 618 L 158 629 L 162 634 L 161 636 L 157 634 L 150 628 L 131 609 L 129 608 Z M 1171 593 L 1169 595 L 1169 598 L 1171 600 L 1175 600 L 1177 597 L 1174 593 Z M 1429 584 L 1427 586 L 1426 593 L 1429 597 L 1431 597 L 1432 599 L 1426 609 L 1427 608 L 1431 608 L 1436 599 L 1441 599 L 1442 600 L 1442 608 L 1446 608 L 1446 582 L 1433 582 Z M 1431 587 L 1434 585 L 1441 585 L 1442 586 L 1442 595 L 1441 596 L 1434 596 L 1430 592 Z M 1325 582 L 1325 608 L 1329 608 L 1329 582 Z M 1260 582 L 1259 598 L 1257 603 L 1254 605 L 1254 614 L 1257 614 L 1257 609 L 1258 608 L 1275 608 L 1277 610 L 1277 614 L 1280 614 L 1280 605 L 1277 604 L 1277 582 Z M 1264 585 L 1272 585 L 1273 586 L 1273 604 L 1272 605 L 1262 605 L 1261 604 L 1263 597 L 1263 586 Z M 1221 582 L 1214 598 L 1211 608 L 1215 608 L 1215 606 L 1218 602 L 1229 602 L 1232 608 L 1235 608 L 1236 609 L 1235 604 L 1233 601 L 1226 582 Z M 1223 588 L 1224 588 L 1226 591 L 1228 597 L 1227 599 L 1220 599 L 1219 598 L 1221 590 Z M 1079 582 L 1068 608 L 1072 608 L 1075 602 L 1086 602 L 1088 604 L 1089 608 L 1094 608 L 1088 595 L 1084 582 Z M 1081 588 L 1083 589 L 1085 595 L 1085 598 L 1084 599 L 1078 599 L 1077 598 L 1078 592 Z M 1029 582 L 1029 609 L 1030 608 L 1032 609 L 1033 608 L 1033 597 L 1034 596 L 1037 598 L 1045 608 L 1050 608 L 1039 595 L 1039 593 L 1049 582 L 1045 582 L 1035 593 L 1033 592 L 1033 582 Z M 946 582 L 946 608 L 962 608 L 964 607 L 967 603 L 967 600 L 963 595 L 963 593 L 965 591 L 965 585 L 961 582 Z M 950 597 L 951 596 L 959 596 L 963 601 L 960 605 L 951 605 L 950 604 Z M 950 586 L 951 585 L 959 585 L 961 587 L 961 591 L 959 593 L 951 593 L 950 592 Z M 859 582 L 866 592 L 867 596 L 858 608 L 863 608 L 867 601 L 869 599 L 871 599 L 876 608 L 880 608 L 881 609 L 879 604 L 873 596 L 874 592 L 881 582 L 877 582 L 871 590 L 869 590 L 867 588 L 864 582 Z M 824 582 L 823 587 L 820 592 L 820 595 L 814 608 L 818 608 L 821 602 L 833 602 L 835 608 L 840 608 L 836 600 L 830 582 Z M 826 587 L 829 589 L 830 594 L 832 597 L 831 599 L 823 599 L 822 598 Z M 1388 581 L 1388 608 L 1406 608 L 1406 605 L 1393 605 L 1392 604 L 1392 597 L 1393 596 L 1404 596 L 1404 593 L 1393 593 L 1392 592 L 1392 586 L 1393 585 L 1405 585 L 1405 582 L 1389 582 Z M 1368 582 L 1353 582 L 1352 581 L 1351 582 L 1351 593 L 1352 594 L 1351 608 L 1352 609 L 1353 608 L 1355 609 L 1355 586 L 1356 585 L 1368 585 Z M 1301 581 L 1300 582 L 1300 608 L 1315 608 L 1317 607 L 1320 603 L 1320 597 L 1317 593 L 1311 591 L 1305 592 L 1303 590 L 1303 581 Z M 1303 596 L 1305 594 L 1311 594 L 1316 598 L 1316 602 L 1312 605 L 1305 605 L 1304 604 L 1304 598 Z M 1133 581 L 1132 582 L 1124 582 L 1123 581 L 1122 582 L 1119 582 L 1114 586 L 1113 592 L 1119 599 L 1112 608 L 1113 609 L 1114 608 L 1116 609 L 1125 598 L 1128 598 L 1129 599 L 1129 608 L 1133 608 Z M 1117 589 L 1118 587 L 1121 585 L 1128 585 L 1130 589 L 1130 594 L 1128 596 L 1122 596 L 1117 592 Z M 998 581 L 990 584 L 987 587 L 985 593 L 985 597 L 987 603 L 991 607 L 1000 609 L 1006 607 L 1009 604 L 1006 602 L 1003 605 L 1000 606 L 993 604 L 989 598 L 989 592 L 993 586 L 998 584 L 1003 585 L 1006 588 L 1009 586 L 1004 582 Z M 910 581 L 905 583 L 900 588 L 898 593 L 898 598 L 900 603 L 904 607 L 909 609 L 914 609 L 920 607 L 923 604 L 926 595 L 925 594 L 925 590 L 920 583 L 914 581 Z M 910 584 L 914 584 L 918 586 L 920 588 L 922 593 L 922 597 L 919 603 L 913 606 L 908 605 L 902 598 L 902 592 L 906 586 Z M 776 581 L 775 582 L 775 594 L 774 595 L 774 599 L 772 604 L 769 605 L 769 614 L 772 614 L 773 613 L 772 610 L 774 608 L 791 608 L 792 609 L 792 614 L 796 614 L 796 606 L 793 604 L 793 582 L 777 582 Z M 780 585 L 788 585 L 789 586 L 789 603 L 787 605 L 777 605 L 776 604 L 778 599 L 778 593 L 779 592 L 779 586 Z M 408 558 L 406 560 L 406 599 L 407 600 L 445 600 L 446 599 L 446 560 L 444 558 Z M 429 581 L 440 581 L 441 582 L 441 596 L 440 597 L 429 597 L 428 596 L 428 582 Z M 412 581 L 423 581 L 424 582 L 424 596 L 423 597 L 412 597 L 411 596 L 411 582 Z M 429 562 L 440 562 L 441 563 L 441 576 L 440 577 L 429 577 L 428 576 L 428 563 Z M 412 562 L 423 562 L 424 563 L 424 576 L 423 577 L 412 577 L 411 576 L 411 563 Z M 294 558 L 292 560 L 292 599 L 294 601 L 295 600 L 330 600 L 331 599 L 331 559 L 330 558 Z M 315 581 L 326 581 L 327 582 L 327 596 L 326 597 L 315 597 L 314 596 L 314 582 Z M 298 581 L 308 581 L 310 583 L 310 591 L 308 597 L 297 597 L 296 596 L 296 583 Z M 315 562 L 326 562 L 327 563 L 327 576 L 326 577 L 315 577 L 314 576 L 314 563 Z M 298 562 L 308 562 L 310 564 L 309 567 L 310 568 L 310 576 L 309 577 L 297 577 L 296 576 L 296 564 Z M 305 540 L 306 541 L 432 541 L 433 539 L 431 536 L 428 537 L 393 537 L 392 536 L 376 536 L 375 537 L 329 537 L 328 536 L 313 536 L 312 537 L 306 537 Z M 347 477 L 347 518 L 348 519 L 388 519 L 390 517 L 390 478 L 388 476 L 363 476 L 362 475 L 360 476 L 356 476 L 355 475 L 354 476 L 351 476 L 350 475 Z M 371 500 L 372 499 L 384 499 L 386 506 L 386 513 L 384 515 L 372 515 L 371 514 Z M 353 499 L 365 499 L 366 500 L 366 514 L 365 515 L 352 515 L 351 514 L 351 501 Z M 371 481 L 372 480 L 384 480 L 386 482 L 386 494 L 385 495 L 372 495 L 371 494 Z M 351 481 L 352 480 L 365 480 L 366 481 L 366 494 L 365 495 L 353 495 L 351 488 Z M 485 427 L 484 429 L 484 436 L 483 437 L 481 447 L 479 451 L 471 459 L 471 460 L 476 459 L 483 453 L 484 454 L 483 461 L 479 468 L 473 474 L 466 478 L 467 479 L 472 479 L 479 475 L 482 471 L 484 472 L 483 478 L 481 482 L 474 490 L 466 496 L 461 498 L 464 500 L 465 499 L 469 499 L 475 496 L 482 489 L 483 489 L 484 491 L 481 499 L 476 506 L 468 513 L 463 515 L 464 517 L 467 517 L 468 516 L 470 517 L 483 507 L 484 510 L 482 516 L 472 528 L 473 529 L 476 529 L 478 528 L 482 523 L 484 524 L 483 532 L 479 537 L 480 539 L 484 541 L 483 544 L 487 549 L 488 552 L 488 547 L 487 546 L 487 541 L 488 540 L 501 550 L 504 551 L 512 551 L 506 548 L 498 542 L 489 532 L 487 528 L 487 525 L 489 524 L 493 529 L 501 534 L 504 535 L 513 535 L 513 534 L 502 529 L 493 520 L 488 513 L 487 508 L 489 507 L 495 513 L 505 518 L 513 518 L 512 516 L 510 516 L 500 510 L 494 504 L 488 495 L 487 490 L 489 489 L 491 492 L 502 499 L 509 499 L 509 497 L 507 497 L 500 493 L 491 484 L 488 478 L 487 473 L 489 472 L 497 479 L 500 480 L 504 480 L 505 479 L 497 474 L 493 470 L 488 462 L 488 459 L 487 458 L 487 454 L 489 453 L 493 458 L 497 460 L 500 459 L 493 453 L 490 447 L 488 437 L 487 436 L 487 429 L 486 427 Z M 253 427 L 252 427 L 251 429 L 251 435 L 250 436 L 250 440 L 248 446 L 243 455 L 237 460 L 242 460 L 244 459 L 248 454 L 250 453 L 251 454 L 250 461 L 244 471 L 238 476 L 233 478 L 234 480 L 241 479 L 248 473 L 250 474 L 250 477 L 246 485 L 238 493 L 228 498 L 229 499 L 237 499 L 246 493 L 249 489 L 251 490 L 250 495 L 245 503 L 238 511 L 227 517 L 225 517 L 225 519 L 233 519 L 240 516 L 250 507 L 251 508 L 250 513 L 245 521 L 237 529 L 225 535 L 235 535 L 242 532 L 249 524 L 251 525 L 250 532 L 239 544 L 228 550 L 227 552 L 236 551 L 246 545 L 252 538 L 254 539 L 255 536 L 254 525 L 255 524 L 261 529 L 264 525 L 260 521 L 255 513 L 254 507 L 256 506 L 263 514 L 271 517 L 274 515 L 269 512 L 260 503 L 254 492 L 254 490 L 256 489 L 263 496 L 269 499 L 276 499 L 277 498 L 274 496 L 272 496 L 264 490 L 258 483 L 255 477 L 254 473 L 256 472 L 261 477 L 268 480 L 272 479 L 268 477 L 261 471 L 255 461 L 255 458 L 254 457 L 254 454 L 255 453 L 263 460 L 267 460 L 267 459 L 258 449 L 258 447 L 256 444 L 256 440 L 254 436 L 254 429 Z M 1501 422 L 1505 426 L 1506 432 L 1501 444 L 1496 461 L 1492 469 L 1489 480 L 1487 483 L 1485 492 L 1483 495 L 1477 514 L 1474 519 L 1471 522 L 1468 523 L 1488 523 L 1486 522 L 1484 515 L 1492 492 L 1493 491 L 1511 491 L 1512 490 L 1529 490 L 1532 493 L 1540 516 L 1540 520 L 1537 523 L 1561 523 L 1560 523 L 1555 517 L 1549 498 L 1547 495 L 1547 492 L 1545 489 L 1539 470 L 1533 456 L 1530 445 L 1528 442 L 1528 439 L 1524 431 L 1522 422 Z M 1511 438 L 1513 439 L 1514 445 L 1518 453 L 1521 464 L 1528 481 L 1527 484 L 1496 484 L 1495 483 Z M 1356 422 L 1361 428 L 1361 518 L 1360 520 L 1356 523 L 1427 523 L 1428 524 L 1431 524 L 1438 532 L 1440 543 L 1444 543 L 1445 542 L 1444 541 L 1444 521 L 1445 520 L 1445 515 L 1444 514 L 1442 515 L 1435 515 L 1432 511 L 1432 430 L 1434 425 L 1437 422 L 1413 422 L 1416 425 L 1418 430 L 1418 513 L 1417 514 L 1376 514 L 1375 513 L 1375 429 L 1380 422 Z M 1227 422 L 1232 427 L 1232 430 L 1233 431 L 1233 516 L 1230 522 L 1228 523 L 1251 523 L 1249 522 L 1247 518 L 1247 509 L 1289 452 L 1291 453 L 1291 517 L 1289 521 L 1286 523 L 1310 523 L 1305 517 L 1305 429 L 1306 426 L 1310 422 L 1286 422 L 1290 426 L 1291 436 L 1249 493 L 1247 492 L 1247 428 L 1251 422 Z M 1096 422 L 1100 426 L 1101 429 L 1101 517 L 1100 520 L 1096 523 L 1119 523 L 1115 517 L 1115 476 L 1117 474 L 1160 474 L 1161 475 L 1161 518 L 1157 523 L 1180 523 L 1177 521 L 1175 517 L 1175 430 L 1177 425 L 1180 422 L 1156 422 L 1159 425 L 1161 430 L 1161 465 L 1159 467 L 1147 467 L 1146 466 L 1123 466 L 1122 467 L 1117 467 L 1115 465 L 1115 430 L 1116 427 L 1120 422 Z M 964 422 L 968 427 L 968 437 L 969 438 L 969 468 L 968 469 L 969 471 L 969 516 L 968 519 L 964 523 L 987 523 L 985 522 L 983 518 L 983 475 L 984 474 L 1027 474 L 1029 476 L 1029 517 L 1025 524 L 1026 523 L 1047 523 L 1043 517 L 1043 429 L 1048 422 L 1024 422 L 1027 425 L 1029 430 L 1029 465 L 1028 466 L 1011 466 L 1010 467 L 985 467 L 983 465 L 983 429 L 988 422 Z M 844 422 L 849 427 L 850 430 L 850 517 L 849 519 L 844 523 L 913 523 L 917 503 L 916 503 L 908 512 L 903 515 L 866 515 L 864 513 L 864 476 L 866 474 L 893 474 L 899 479 L 901 483 L 901 460 L 893 467 L 866 467 L 864 465 L 864 432 L 866 430 L 897 430 L 904 432 L 912 442 L 911 422 Z M 709 422 L 711 424 L 713 424 L 724 429 L 727 432 L 727 436 L 728 437 L 727 468 L 726 469 L 726 477 L 724 482 L 723 492 L 718 505 L 711 513 L 707 515 L 702 515 L 701 514 L 700 515 L 700 537 L 701 538 L 701 542 L 703 543 L 704 542 L 707 531 L 709 528 L 715 523 L 782 523 L 789 528 L 792 533 L 794 543 L 797 543 L 797 540 L 798 539 L 798 518 L 799 515 L 789 515 L 786 512 L 786 505 L 787 504 L 787 493 L 786 492 L 786 482 L 787 481 L 786 444 L 787 443 L 787 435 L 786 432 L 788 426 L 791 424 L 792 422 Z M 737 430 L 771 430 L 772 431 L 772 513 L 771 514 L 723 514 L 722 513 L 728 501 L 729 495 L 731 491 L 732 481 L 733 480 L 734 466 L 735 465 L 736 431 Z M 305 429 L 304 431 L 304 483 L 296 496 L 291 502 L 287 510 L 277 523 L 276 526 L 273 529 L 266 541 L 250 563 L 249 566 L 228 598 L 237 604 L 247 608 L 258 593 L 261 587 L 263 588 L 263 630 L 262 631 L 256 631 L 255 632 L 243 631 L 241 634 L 243 636 L 497 636 L 498 635 L 498 632 L 497 631 L 477 631 L 476 630 L 476 589 L 477 588 L 479 589 L 491 607 L 493 608 L 509 600 L 511 597 L 506 591 L 466 530 L 463 527 L 458 518 L 455 515 L 372 390 L 370 388 L 367 388 L 364 391 L 354 408 L 349 414 L 346 420 L 327 448 L 325 447 L 325 438 L 326 437 L 325 436 L 325 430 L 324 429 Z M 352 560 L 385 560 L 386 561 L 386 630 L 385 631 L 352 631 L 351 630 L 351 561 Z M 320 433 L 321 434 L 321 457 L 312 471 L 310 472 L 309 471 L 309 434 L 310 433 Z M 368 425 L 370 426 L 371 429 L 384 447 L 390 458 L 401 473 L 404 479 L 471 578 L 471 630 L 470 631 L 392 631 L 391 630 L 391 557 L 390 556 L 348 556 L 347 557 L 347 561 L 346 562 L 347 564 L 347 605 L 346 606 L 347 630 L 346 631 L 269 631 L 268 630 L 268 577 L 299 530 L 304 524 L 309 515 L 316 506 L 322 495 L 325 492 L 333 478 Z M 235 596 L 289 516 L 290 513 L 297 504 L 298 501 L 341 437 L 342 434 L 345 431 L 346 428 L 365 400 L 366 397 L 369 395 L 400 441 L 401 444 L 408 453 L 409 456 L 418 468 L 425 480 L 434 492 L 435 495 L 438 498 L 443 507 L 446 510 L 504 597 L 495 603 L 493 602 L 397 459 L 396 456 L 389 447 L 384 438 L 368 416 L 354 437 L 353 440 L 331 472 L 325 483 L 309 506 L 308 509 L 293 530 L 254 590 L 251 593 L 247 601 L 244 603 L 242 601 L 237 599 Z M 570 365 L 568 368 L 568 376 L 567 377 L 567 381 L 565 387 L 559 398 L 550 407 L 550 408 L 552 409 L 561 404 L 565 398 L 567 397 L 568 398 L 567 408 L 563 417 L 557 425 L 550 431 L 542 435 L 542 437 L 543 438 L 552 437 L 559 433 L 565 427 L 567 428 L 567 433 L 558 448 L 548 457 L 539 462 L 537 462 L 535 465 L 538 467 L 549 465 L 559 459 L 565 452 L 567 453 L 567 457 L 562 467 L 552 479 L 543 486 L 529 492 L 528 494 L 530 495 L 538 495 L 550 491 L 552 489 L 556 488 L 563 482 L 565 479 L 567 480 L 567 483 L 561 494 L 555 502 L 548 509 L 538 516 L 526 521 L 523 521 L 522 523 L 526 525 L 541 523 L 549 518 L 551 519 L 554 517 L 565 505 L 567 506 L 567 508 L 564 513 L 564 515 L 558 524 L 544 538 L 531 546 L 529 546 L 523 549 L 520 549 L 518 552 L 533 552 L 542 549 L 546 546 L 547 546 L 548 548 L 556 542 L 565 532 L 567 533 L 567 537 L 559 550 L 548 562 L 537 570 L 529 574 L 519 577 L 518 579 L 520 580 L 530 580 L 531 579 L 535 579 L 541 577 L 547 574 L 548 577 L 549 577 L 566 562 L 567 563 L 567 567 L 566 568 L 566 573 L 567 574 L 566 576 L 566 605 L 576 605 L 576 601 L 575 600 L 575 565 L 574 564 L 575 562 L 591 577 L 592 577 L 591 575 L 594 574 L 600 578 L 610 581 L 622 581 L 624 579 L 605 571 L 595 564 L 583 551 L 574 536 L 574 533 L 576 532 L 580 538 L 593 549 L 593 548 L 595 547 L 603 552 L 615 554 L 616 555 L 623 555 L 625 554 L 626 552 L 613 548 L 597 539 L 583 526 L 575 513 L 574 507 L 576 506 L 585 516 L 591 520 L 593 519 L 600 523 L 603 523 L 608 525 L 618 525 L 619 524 L 617 521 L 609 519 L 596 511 L 582 496 L 574 483 L 574 480 L 576 479 L 584 487 L 600 495 L 612 495 L 613 494 L 612 492 L 607 491 L 601 488 L 590 480 L 578 466 L 574 458 L 574 454 L 576 453 L 577 455 L 584 461 L 592 465 L 599 467 L 603 467 L 607 465 L 606 463 L 599 461 L 589 454 L 582 447 L 574 434 L 573 426 L 575 425 L 582 433 L 592 438 L 599 438 L 600 437 L 598 434 L 589 429 L 580 420 L 573 405 L 573 399 L 574 398 L 584 407 L 589 409 L 591 408 L 591 407 L 582 398 L 579 393 L 573 376 L 573 368 L 572 366 Z M 565 550 L 566 552 L 564 555 L 561 557 L 560 555 L 562 552 Z M 170 365 L 168 368 L 167 380 L 164 389 L 159 398 L 150 407 L 150 408 L 157 407 L 160 405 L 165 398 L 167 397 L 168 398 L 168 403 L 166 410 L 162 418 L 157 424 L 149 431 L 141 435 L 141 436 L 143 438 L 152 437 L 156 435 L 165 426 L 167 427 L 167 432 L 161 443 L 151 454 L 144 459 L 138 462 L 136 462 L 133 465 L 136 467 L 137 466 L 140 467 L 145 466 L 154 462 L 164 453 L 166 454 L 166 458 L 159 470 L 152 478 L 139 488 L 133 491 L 131 491 L 127 493 L 127 494 L 130 496 L 134 496 L 147 492 L 157 486 L 165 477 L 167 478 L 166 483 L 156 499 L 142 513 L 129 520 L 121 522 L 120 524 L 122 525 L 133 525 L 142 522 L 148 518 L 150 519 L 165 505 L 167 506 L 166 511 L 157 525 L 143 539 L 130 547 L 116 552 L 115 554 L 117 555 L 129 554 L 136 552 L 144 547 L 147 549 L 165 532 L 166 533 L 166 537 L 162 545 L 150 560 L 136 571 L 128 575 L 117 578 L 116 580 L 117 581 L 130 581 L 131 580 L 138 579 L 145 575 L 147 575 L 148 576 L 147 578 L 148 578 L 165 562 L 166 563 L 166 569 L 165 570 L 165 577 L 166 578 L 166 582 L 165 583 L 165 605 L 176 605 L 175 603 L 175 588 L 174 587 L 174 563 L 176 562 L 184 571 L 191 576 L 194 574 L 199 577 L 205 579 L 210 579 L 211 580 L 220 580 L 222 578 L 219 576 L 205 571 L 190 560 L 180 548 L 174 537 L 174 534 L 176 533 L 191 547 L 194 546 L 200 550 L 206 552 L 211 552 L 212 553 L 219 553 L 222 552 L 222 551 L 202 542 L 190 533 L 180 522 L 174 511 L 173 506 L 175 505 L 177 508 L 187 517 L 189 518 L 191 517 L 194 520 L 200 523 L 208 524 L 209 525 L 216 525 L 219 523 L 219 522 L 208 518 L 196 511 L 182 497 L 178 491 L 173 480 L 173 478 L 175 477 L 178 482 L 185 488 L 187 488 L 189 490 L 203 495 L 210 495 L 212 493 L 198 486 L 190 480 L 180 469 L 174 459 L 174 455 L 176 454 L 181 459 L 189 464 L 195 466 L 204 466 L 205 465 L 203 462 L 201 462 L 195 459 L 187 453 L 179 444 L 176 439 L 176 437 L 174 435 L 173 427 L 175 426 L 179 431 L 190 438 L 199 438 L 200 436 L 187 428 L 181 422 L 175 412 L 175 410 L 173 407 L 173 400 L 172 399 L 173 396 L 175 397 L 176 400 L 182 406 L 186 408 L 190 408 L 190 406 L 184 401 L 177 390 L 173 377 L 172 367 L 171 365 Z M 158 559 L 159 561 L 152 567 L 151 565 Z M 384 352 L 389 362 L 389 364 L 399 382 L 400 382 L 394 367 L 395 365 L 398 366 L 406 373 L 425 386 L 446 408 L 462 418 L 441 398 L 428 383 L 417 376 L 390 355 Z M 363 359 L 362 358 L 345 375 L 339 378 L 338 376 L 344 362 L 344 359 L 346 356 L 347 351 L 329 369 L 315 381 L 302 389 L 298 390 L 278 400 L 264 411 L 268 408 L 274 406 L 276 404 L 280 403 L 282 401 L 295 395 L 297 395 L 299 393 L 304 391 L 305 393 L 299 400 L 290 414 L 299 406 L 314 386 L 335 369 L 337 370 L 337 373 L 333 385 L 346 378 L 360 365 L 362 366 L 364 371 L 369 377 Z M 215 417 L 219 416 L 235 408 L 246 401 L 265 387 L 285 370 L 296 375 L 299 375 L 305 372 L 315 363 L 327 347 L 336 338 L 342 335 L 350 327 L 359 314 L 367 306 L 369 306 L 375 312 L 390 334 L 404 341 L 408 345 L 422 367 L 436 376 L 439 379 L 442 380 L 447 380 L 455 377 L 459 377 L 472 388 L 486 398 L 494 402 L 499 406 L 519 416 L 523 417 L 497 400 L 461 372 L 454 372 L 447 375 L 442 375 L 434 368 L 427 364 L 415 347 L 412 341 L 408 337 L 396 332 L 392 328 L 377 305 L 374 302 L 371 301 L 365 301 L 363 302 L 357 308 L 347 323 L 338 332 L 328 338 L 313 358 L 301 369 L 297 370 L 289 366 L 283 366 L 261 384 L 233 405 Z"/>
</svg>
